# xmcd
#
# Track frame offsets:
#       150
#       21881
#       39243
#       46932
#       72960
#       96163
#       113925
#       136324
#       260876
#       279865
#       305369
#       322299
#
# Disc length: 4607 seconds
#
# Revision: 0
# Processed by: cddbd v1.4PL0 Copyright (c) Steve Scherf et al.
# Submitted via: CD-DA_X-Tractor v0.24
#
DISCID=ab11fd0c
DTITLE=Ben Harper - The Will To Live
DYEAR=2002
DGENRE=
TTITLE0=Faded
TTITLE1=Homeless Child
TTITLE2=Number Three
TTITLE3=Roses From My Friends
TTITLE4=Jah Work
TTITLE5=I Want To Be Ready
TTITLE6=The Will To Live
TTITLE7=Ashes
TTITLE8=Widow Of A Living Man
TTITLE9=Glory and Consequence
TTITLE10=Mama's Trippin'
TTITLE11=I Shall Not Walk Alone
EXTD=
EXTT0=
EXTT1=
EXTT2=
EXTT3=
EXTT4=
EXTT5=
EXTT6=
EXTT7=
EXTT8=
EXTT9=
EXTT10=
EXTT11=
PLAYORDER=
